<svg width="306" height="291" viewBox="0 0 306 291" fill="none" xmlns="http://www.w3.org/2000/svg">
<path d="M284.121 214C290.58 214 295.998 214.414 300.374 215.242C301.416 218.554 302.562 228.593 303.812 245.359C305.271 261.918 306 273.613 306 280.444C305.166 281.272 302.458 282.513 297.873 284.169C293.289 285.618 289.33 286.446 285.996 286.653C166.805 288.723 78.141 290.172 20.0041 291C16.6701 290.793 12.7109 289.862 8.12667 288.206C3.33402 286.55 0.625132 285.411 7.40497e-08 284.79C1.57973e-07 277.753 0.729319 265.23 2.18796 247.222C3.43821 229.214 4.58427 218.554 5.62615 215.242C10.6272 214.621 16.045 214.31 21.8795 214.31C22.713 217.001 24.7967 232.526 28.1308 260.883C140.654 262.125 225.046 262.746 281.307 262.746L284.121 214Z" fill="black"/>
<path d="M74.2523 131.757C67.7726 133.252 61.4174 134 55.1869 134C49.2056 134 43.2243 133.626 37.243 132.879C35.7477 125.9 35 118.922 35 111.944C35 104.717 35.2492 99.3583 35.7477 95.8692C41.2305 94.6231 46.9626 94 52.9439 94C59.1745 94 65.7788 94.2492 72.757 94.7477C74.2523 101.227 75 107.583 75 113.813C75 119.794 74.7508 125.776 74.2523 131.757Z" fill="black"/>
<path d="M73.4 200.64C79.16 202.773 86.7333 203.84 96.12 203.84C105.507 203.84 112.867 201.173 118.2 195.84C123.747 190.293 126.52 180.48 126.52 166.4C126.52 152.107 126.307 136.96 125.88 120.96C125.453 104.96 124.813 86.8267 123.96 66.56C123.107 46.08 122.467 30.1867 122.04 18.88C115.64 18.0267 106.253 15.4667 93.88 11.2L94.84 0H174.84C178.467 6.82667 180.28 13.2267 180.28 19.2C177.72 20.0533 169.187 20.48 154.68 20.48C154.253 39.4667 153.72 66.4533 153.08 101.44C152.653 136.427 152.333 159.467 152.12 170.56C151.693 188.693 147.32 202.88 139 213.12C130.893 223.147 118.947 228.16 103.16 228.16C91.64 228.16 79.8 226.56 67.64 223.36C55.48 220.16 47.2667 216.96 43 213.76C43.2133 197.547 44.92 180.053 48.12 161.28C51.5333 159.787 57.8267 159.04 67 159.04L73.4 200.64Z" fill="black"/>
<path d="M200.16 223.12L197.6 102.48H172.96L172 91.28C174.133 89.7867 180.32 87.0133 190.56 82.96L216.8 42C221.067 42.4267 224.373 43.4933 226.72 45.2L226.4 80.4C242.4 80.4 255.52 81.4667 265.76 83.6C265.76 89.36 263.947 95.6533 260.32 102.48H225.76C225.333 128.08 224.907 166.907 224.48 218.96C236.427 219.6 248.373 221.733 260.32 225.36L260 236.56C257.013 238.48 249.333 240.72 236.96 243.28C224.8 245.84 214.773 247.12 206.88 247.12C205.813 245.413 204.427 241.787 202.72 236.24C201.013 230.48 200.16 226.107 200.16 223.12Z" fill="black"/>
</svg>
